HIERARCHY
ROOT Hips
{
  OFFSET 32.6806 98.6118 -13.9239
  CHANNELS 6 Xposition Yposition Zposition Zrotation Xrotation Yrotation
  JOINT spine
  {
    OFFSET 0 8.30104 0.477351
    CHANNELS 3 Zrotation Xrotation Yrotation
    JOINT spine1
    {
      OFFSET 0 10.4565 0
      CHANNELS 3 Zrotation Xrotation Yrotation
      JOINT spine2
      {
        OFFSET 0 10.0192 0
        CHANNELS 3 Zrotation Xrotation Yrotation
        JOINT Neck
        {
          OFFSET 0 25.7235 1.22641
          CHANNELS 3 Zrotation Xrotation Yrotation
          JOINT Head
          {
            OFFSET 0 7.77175 0
            CHANNELS 3 Zrotation Xrotation Yrotation
            End Site
            {
              OFFSET 0 18.812 -6.20394
            }
          }
        }
        JOINT RightShoulder
        {
          OFFSET -4.2188 10.82 -0.587439
          CHANNELS 3 Zrotation Xrotation Yrotation
          JOINT RightArm
          {
            OFFSET 0 14.1914 0
            CHANNELS 3 Zrotation Xrotation Yrotation
            JOINT RightArmRoll
            {
              OFFSET 0 7.16408 0
              CHANNELS 3 Zrotation Xrotation Yrotation
              JOINT RightForeArm
              {
                OFFSET 0 20.8665 0
                CHANNELS 3 Zrotation Xrotation Yrotation
                JOINT RightForeArmRoll
                {
                  OFFSET 0 8.03921 0
                  CHANNELS 3 Zrotation Xrotation Yrotation
                  JOINT RightHand
                  {
                    OFFSET 0 16.133 0
                    CHANNELS 3 Zrotation Xrotation Yrotation
                    End Site
                    {
                      OFFSET 0 0 0
                    }
                  }
                }
              }
            }
          }
        }
        JOINT LeftShoulder
        {
          OFFSET 4.2188 10.82 -0.587439
          CHANNELS 3 Zrotation Xrotation Yrotation
          JOINT LeftArm
          {
            OFFSET 0 14.1914 0
            CHANNELS 3 Zrotation Xrotation Yrotation
            JOINT LeftArmRoll
            {
              OFFSET 0 7.16409 0
              CHANNELS 3 Zrotation Xrotation Yrotation
              JOINT LeftForeArm
              {
                OFFSET 0 20.8665 0
                CHANNELS 3 Zrotation Xrotation Yrotation
                JOINT LeftForeArmRoll
                {
                  OFFSET 0 8.03921 0
                  CHANNELS 3 Zrotation Xrotation Yrotation
                  JOINT LeftHand
                  {
                    OFFSET 0 16.133 0
                    CHANNELS 3 Zrotation Xrotation Yrotation
                    End Site
                    {
                      OFFSET 0 0 0
                    }
                  }
                }
              }
            }
          }
        }
      }
    }
  }
  JOINT RightUpLeg
  {
    OFFSET -7.35773 -1.34921 -1.13182
    CHANNELS 3 Zrotation Xrotation Yrotation
    JOINT RightUpLegRoll
    {
      OFFSET 0 18.9168 0
      CHANNELS 3 Zrotation Xrotation Yrotation
      JOINT RightLeg
      {
        OFFSET 0 -23.4256 0
        CHANNELS 3 Zrotation Xrotation Yrotation
        JOINT RightLegRoll
        {
          OFFSET 0 23.5023 0
          CHANNELS 3 Zrotation Xrotation Yrotation
          JOINT RightFoot
          {
            OFFSET 0 19.5617 0
            CHANNELS 3 Zrotation Xrotation Yrotation
            JOINT RightToeBase
            {
              OFFSET 0 16.3526 0
              CHANNELS 3 Zrotation Xrotation Yrotation
              End Site
              {
                OFFSET 0.00693125 7.91943 -0.912837
              }
            }
          }
        }
      }
    }
  }
  JOINT LeftUpLeg
  {
    OFFSET 7.35773 -1.34921 -1.13182
    CHANNELS 3 Zrotation Xrotation Yrotation
    JOINT LeftUpLegRoll
    {
      OFFSET 0 18.9169 0
      CHANNELS 3 Zrotation Xrotation Yrotation
      JOINT LeftLeg
      {
        OFFSET 0 23.4255 0
        CHANNELS 3 Zrotation Xrotation Yrotation
        JOINT LeftLegRoll
        {
          OFFSET 0 23.7195 0
          CHANNELS 3 Zrotation Xrotation Yrotation
          JOINT LeftFoot
          {
            OFFSET 0 19.3444 0
            CHANNELS 3 Zrotation Xrotation Yrotation
            JOINT LeftToeBase
            {
              OFFSET 0 16.3526 0
              CHANNELS 3 Zrotation Xrotation Yrotation
              End Site
              {
                OFFSET -0.0310629 7.91943 -0.912837
              }
            }
          }
        }
      }
    }
  }
}
MOTION
Frames: 7
Frame Time: 0.00208333
35.6694 98.6245 -1.63285 0.673101 -4.02769 2.39628 0.178395 -0.91306 0.188044 0.365289 2.17727 0.364745 0.360941 3.82231 0.358857 1.05909 20.5965 -2.14015 -2.36954 -5.98439 -2.15106 74.5035 -1.57928 -2.52392 95.1868 23.4662 21.4982 2.21868e-006 4.2705e-006 9.02883e-007 11.7322 0.0856778 -0.0734172 -1.94833e-006 1.65395e-006 -3.03146 8.02888 -4.95144 0.697693 -67.0513 4.93698 -1.55144 -99.6799 15.7944 -14.2185 -6.7657e-006 -1.00713e-006 -1.19945e-006 -10.9721 1.90636 0.626468 4.33004e-006 1.34617e-007 3.01457 -8.0289 -4.95147 -0.697674 179.474 -2.47568 -0.0334148 180 7.01561e-015 178.987 175.233 4.98767 179.795 -2.20793e-006 -2.58006e-006 0.0571449 -18.3266 67.7496 19.3445 8.15166 25.2318 -3.4942 -179.913 -0.583003 3.45953 4.54188e-006 -4.6773e-006 -1.1347 -3.13826 -11.0676 0.478123 -1.60144e-006 -6.63362e-007 -0.157998 19.3172 68.8253 -20.2332 -8.14426 25.2322 3.49104 
35.6753 98.6228 -1.64603 0.67226 -4.02631 2.39453 0.178298 -0.913164 0.188805 0.365172 2.17706 0.366541 0.360824 3.8221 0.36066 1.06222 20.597 -2.14237 -2.3752 -5.99135 -2.15332 74.5011 -1.58125 -2.52456 95.1821 23.4586 21.4935 2.21868e-006 4.2705e-006 9.02883e-007 11.7404 0.0856752 -0.0722423 -1.94833e-006 1.65395e-006 -3.03146 8.02888 -4.95144 0.697693 -67.0519 4.93737 -1.55154 -99.679 15.7832 -14.2175 -6.7657e-006 -1.00713e-006 -1.19945e-006 -10.9778 1.90018 0.625411 4.33004e-006 1.34617e-007 3.01457 -8.0289 -4.95147 -0.697674 179.475 -2.46561 -0.0304354 180 7.01561e-015 178.987 175.23 5.00467 179.796 -2.20793e-006 -2.58006e-006 0.0573322 -18.322 67.744 19.3396 8.15166 25.2318 -3.4942 -179.912 -0.576891 3.45654 4.54188e-006 -4.6773e-006 -1.13468 -3.1403 -11.0798 0.477394 -1.60144e-006 -6.63362e-007 -0.157995 19.3178 68.826 -20.2338 -8.14426 25.2322 3.49104 
35.6759 98.6346 -1.63457 0.671416 -4.02468 2.39276 0.178154 -0.913342 0.189578 0.364999 2.17671 0.368429 0.360649 3.82175 0.362556 1.06599 20.5974 -2.1449 -2.3813 -5.99825 -2.15578 74.4991 -1.58326 -2.52525 95.1765 23.4507 21.4883 2.21868e-006 4.2705e-006 9.02883e-007 11.7495 0.0856724 -0.0709542 -1.94833e-006 1.65395e-006 -3.03146 8.02888 -4.95144 0.697693 -67.0526 4.93799 -1.55175 -99.6775 15.7722 -14.2166 -6.7657e-006 -1.00713e-006 -1.19945e-006 -10.9835 1.89404 0.624342 4.33004e-006 1.34617e-007 3.01457 -8.0289 -4.95147 -0.697674 179.475 -2.45547 -0.027468 180 7.01561e-015 178.987 175.227 5.02112 179.796 -2.20793e-006 -2.58006e-006 0.0575046 -18.3178 67.7388 19.335 8.15166 25.2318 -3.4942 -179.911 -0.571104 3.45377 4.54188e-006 -4.6773e-006 -1.13466 -3.14219 -11.0908 0.476678 -1.60144e-006 -6.63362e-007 -0.157969 19.3182 68.8265 -20.2344 -8.14426 25.2322 3.49104 
35.6693 98.6309 -1.62572 0.670569 -4.02286 2.39099 0.177978 -0.913571 0.19036 0.364786 2.17626 0.370381 0.360434 3.8213 0.364516 1.07021 20.5978 -2.14766 -2.38773 -6.00511 -2.15835 74.4973 -1.5853 -2.52597 95.1705 23.4425 21.4828 2.21868e-006 4.2705e-006 9.02883e-007 11.7592 0.0856694 -0.0695867 -1.94833e-006 1.65395e-006 -3.03146 8.02888 -4.95144 0.697693 -67.0535 4.93878 -1.55204 -99.6755 15.7613 -14.2157 -6.7657e-006 -1.00713e-006 -1.19945e-006 -10.9892 1.88794 0.623264 4.33004e-006 1.34617e-007 3.01457 -8.0289 -4.95147 -0.697674 179.476 -2.44527 -0.0245092 180 7.01561e-015 178.987 175.224 5.03723 179.797 -2.20793e-006 -2.58006e-006 0.0576667 -18.3138 67.7339 19.3306 8.15166 25.2318 -3.4942 -179.91 -0.565545 3.45115 4.54188e-006 -4.6773e-006 -1.13463 -3.14399 -11.1011 0.475971 -1.60144e-006 -6.63362e-007 -0.157926 19.3187 68.8269 -20.2348 -8.14426 25.2322 3.49104 
35.6676 98.6152 -1.62335 0.66972 -4.02095 2.38921 0.177782 -0.91383 0.191147 0.36455 2.17574 0.372369 0.360196 3.82078 0.366514 1.07468 20.5981 -2.15054 -2.39434 -6.01194 -2.16101 74.4957 -1.58736 -2.52672 95.1641 23.4342 21.477 2.21868e-006 4.2705e-006 9.02883e-007 11.7692 0.0856663 -0.0681738 -1.94833e-006 1.65395e-006 -3.03146 8.02888 -4.95144 0.697693 -67.0543 4.93967 -1.55236 -99.6734 15.7506 -14.2148 -6.7657e-006 -1.00713e-006 -1.19945e-006 -10.995 1.88186 0.622182 4.33004e-006 1.34617e-007 3.01457 -8.0289 -4.95147 -0.697674 179.476 -2.43505 -0.0215553 180 7.01561e-015 178.987 175.221 5.05312 179.798 -2.20793e-006 -2.58006e-006 0.0578229 -18.31 67.7292 19.3264 8.15166 25.2318 -3.4942 -179.909 -0.560115 3.44861 4.54188e-006 -4.6773e-006 -1.1346 -3.14572 -11.1109 0.475269 -1.60144e-006 -6.63362e-007 -0.157873 19.319 68.8273 -20.2352 -8.14426 25.2322 3.49104 
35.6514 98.6177 -1.64407 0.668871 -4.01901 2.38743 0.177582 -0.914096 0.191935 0.364309 2.17521 0.374367 0.359953 3.82025 0.36852 1.07922 20.5984 -2.15346 -2.40099 -6.01876 -2.16368 74.494 -1.58942 -2.52746 95.1577 23.4258 21.4712 2.21868e-006 4.2705e-006 9.02883e-007 11.7793 0.0856631 -0.0667497 -1.94833e-006 1.65395e-006 -3.03146 8.02888 -4.95144 0.697693 -67.0552 4.94058 -1.5527 -99.6712 15.7399 -14.2139 -6.7657e-006 -1.00713e-006 -1.19945e-006 -11.0007 1.87578 0.621098 4.33004e-006 1.34617e-007 3.01457 -8.0289 -4.95147 -0.697674 179.477 -2.42482 -0.0186027 180 7.01561e-015 178.987 175.218 5.06895 179.798 -2.20793e-006 -2.58006e-006 0.0579776 -18.3061 67.7245 19.3223 8.15166 25.2318 -3.4942 -179.908 -0.554719 3.4461 4.54188e-006 -4.6773e-006 -1.13457 -3.14744 -11.1205 0.474568 -1.60144e-006 -6.63362e-007 -0.157819 19.3194 68.8277 -20.2356 -8.14426 25.2322 3.49104 
35.6558 98.6177 -1.63421 0.668023 -4.01712 2.38566 0.177392 -0.914347 0.19272 0.364079 2.17471 0.376346 0.359721 3.81975 0.370508 1.08363 20.5988 -2.15632 -2.40756 -6.0256 -2.16631 74.4923 -1.59148 -2.5282 95.1514 23.4175 21.4655 2.21868e-006 4.2705e-006 9.02883e-007 11.7893 0.08566 -0.0653482 -1.94833e-006 1.65395e-006 -3.03146 8.02888 -4.95144 0.697693 -67.056 4.94144 -1.55302 -99.6691 15.7292 -14.213 -6.7657e-006 -1.00713e-006 -1.19945e-006 -11.0065 1.8697 0.620017 4.33004e-006 1.34617e-007 3.01457 -8.0289 -4.95147 -0.697674 179.477 -2.4146 -0.0156477 180 7.01561e-015 178.987 175.214 5.0849 179.799 -2.20793e-006 -2.58006e-006 0.0581353 -18.3023 67.7197 19.3181 8.15166 25.2318 -3.4942 -179.906 -0.549256 3.44355 4.54188e-006 -4.6773e-006 -1.13454 -3.14919 -11.1304 0.473865 -1.60144e-006 -6.63362e-007 -0.157769 19.3198 68.8282 -20.2361 -8.14426 25.2322 3.49104 
